<svg width="30" height="31" viewBox="0 0 30 31" fill="none" xmlns="http://www.w3.org/2000/svg">
<g filter="url(#filter0_d_2_10110)">
<path d="M15.12 12.78C15.05 12.77 14.96 12.77 14.88 12.78C13.12 12.72 11.72 11.28 11.72 9.50998C11.72 7.69998 13.18 6.22998 15 6.22998C16.81 6.22998 18.28 7.69998 18.28 9.50998C18.27 11.28 16.88 12.72 15.12 12.78Z" stroke="#292D32" stroke-width="1.5" stroke-linecap="round" stroke-linejoin="round"/>
<path d="M21.74 19.3801C19.96 21.0101 17.6 22.0001 15 22.0001C12.4 22.0001 10.04 21.0101 8.26001 19.3801C8.36001 18.4401 8.96001 17.5201 10.03 16.8001C12.77 14.9801 17.25 14.9801 19.97 16.8001C21.04 17.5201 21.64 18.4401 21.74 19.3801Z" stroke="#292D32" stroke-width="1.5" stroke-linecap="round" stroke-linejoin="round"/>
<path d="M15 22C20.5228 22 25 17.5228 25 12C25 6.47715 20.5228 2 15 2C9.47715 2 5 6.47715 5 12C5 17.5228 9.47715 22 15 22Z" stroke="#292D32" stroke-width="1.5" stroke-linecap="round" stroke-linejoin="round"/>
</g>
<defs>
<filter id="filter0_d_2_10110" x="-1" y="0" width="32" height="32" filterUnits="userSpaceOnUse" color-interpolation-filters="sRGB">
<feFlood flood-opacity="0" result="BackgroundImageFix"/>
<feColorMatrix in="SourceAlpha" type="matrix" values="0 0 0 0 0 0 0 0 0 0 0 0 0 0 0 0 0 0 127 0" result="hardAlpha"/>
<feOffset dy="4"/>
<feGaussianBlur stdDeviation="2"/>
<feComposite in2="hardAlpha" operator="out"/>
<feColorMatrix type="matrix" values="0 0 0 0 0 0 0 0 0 0 0 0 0 0 0 0 0 0 0.25 0"/>
<feBlend mode="normal" in2="BackgroundImageFix" result="effect1_dropShadow_2_10110"/>
<feBlend mode="normal" in="SourceGraphic" in2="effect1_dropShadow_2_10110" result="shape"/>
</filter>
</defs>
</svg>
